<?xml version="1.0" standalone="no"?>
<!DOCTYPE svg PUBLIC "-//W3C//DTD SVG 20010904//EN"
 "http://www.w3.org/TR/2001/REC-SVG-20010904/DTD/svg10.dtd">
<svg version="1.0" xmlns="http://www.w3.org/2000/svg"
 width="1056.000000pt" height="1056.000000pt" viewBox="0 0 1056.000000 1056.000000"
 preserveAspectRatio="xMidYMid meet">
<metadata>
Created by potrace 1.14, written by Peter Selinger 2001-2017
</metadata>
<g transform="translate(0.000000,1056.000000) scale(0.100000,-0.100000)"
fill="#000000" stroke="none">
<path d="M3479 10555 c-2 -1 -56 -6 -119 -9 -116 -6 -187 -11 -270 -21 -25 -2
-65 -6 -90 -9 -25 -2 -45 -5 -45 -5 0 -1 -16 -4 -35 -6 -19 -3 -51 -6 -70 -9
-133 -16 -411 -80 -555 -128 -49 -17 -96 -30 -102 -31 -7 0 -13 -3 -13 -7 0
-4 -6 -7 -12 -7 -37 0 -315 -134 -443 -213 -180 -110 -370 -270 -474 -400 -20
-25 -39 -47 -43 -50 -4 -3 -34 -44 -67 -90 -33 -47 -65 -91 -71 -97 -6 -7 -8
-13 -5 -13 3 0 -5 -15 -18 -32 -13 -18 -32 -51 -43 -73 -10 -22 -22 -42 -26
-45 -5 -4 -54 -106 -63 -130 -2 -6 -30 -69 -50 -115 -27 -59 -74 -205 -67
-205 4 0 2 -4 -4 -8 -6 -4 -15 -25 -21 -47 -6 -22 -20 -75 -32 -117 -11 -43
-20 -81 -19 -85 0 -5 -1 -15 -5 -23 -8 -21 -26 -108 -31 -150 -6 -49 -16 -111
-21 -135 -26 -125 -26 -497 0 -625 14 -68 18 -86 19 -100 1 -9 5 -20 8 -25 3
-6 9 -26 13 -45 16 -81 67 -217 163 -432 9 -21 20 -38 24 -38 5 0 8 -7 8 -15
0 -34 360 -616 417 -673 7 -7 13 -19 13 -27 0 -7 4 -15 8 -17 5 -1 33 -39 62
-83 29 -44 58 -83 63 -86 5 -3 8 -9 8 -13 -1 -3 21 -40 49 -81 27 -41 50 -79
50 -85 0 -5 5 -10 11 -10 6 0 -6 -24 -27 -52 -57 -79 -156 -226 -189 -283 -16
-27 -34 -58 -40 -67 -18 -31 -78 -142 -109 -203 -17 -33 -34 -61 -38 -63 -5
-2 -8 -10 -8 -17 0 -7 -13 -39 -29 -71 -102 -207 -225 -561 -306 -879 -5 -16
-9 -34 -11 -40 -8 -28 -66 -315 -70 -345 -2 -19 -9 -57 -14 -85 -6 -27 -13
-72 -16 -100 -3 -27 -8 -63 -10 -80 -11 -59 -27 -251 -28 -327 0 -32 -3 -58
-6 -58 -14 0 5 -464 25 -605 3 -16 7 -46 10 -65 4 -35 30 -178 39 -215 4 -17
33 -141 40 -170 22 -87 116 -385 126 -400 4 -5 13 -28 20 -50 12 -36 22 -61
60 -150 7 -16 14 -35 16 -41 5 -29 169 -352 229 -454 66 -111 214 -336 245
-371 8 -10 20 -24 25 -31 136 -180 340 -378 500 -485 64 -42 186 -103 208
-103 8 0 17 -3 21 -7 3 -4 12 -8 19 -9 7 -1 46 -11 87 -22 42 -11 98 -23 125
-26 28 -3 66 -8 85 -11 52 -7 197 -15 350 -21 705 -23 1004 -28 1770 -27 1505
2 2155 2 2525 0 334 -2 501 3 625 18 76 9 137 16 179 21 24 2 48 7 52 10 5 3
26 7 47 9 20 3 46 6 57 9 112 25 173 40 188 48 10 5 27 11 38 13 28 6 141 56
160 72 8 7 20 13 25 13 9 0 113 67 124 79 3 3 21 18 40 32 59 44 182 169 252
255 71 88 196 275 242 364 16 30 32 57 35 60 9 7 129 254 186 380 26 58 61
134 78 170 16 36 30 71 30 78 0 6 4 12 8 12 4 0 10 12 13 26 4 14 15 45 25 68
11 22 24 55 29 71 6 17 20 57 32 90 12 33 24 67 26 75 2 8 19 67 38 130 20 63
38 126 40 140 3 14 9 41 15 60 5 19 12 52 16 74 3 21 7 42 10 46 2 3 7 21 10
38 3 18 7 47 11 65 3 17 9 50 13 72 5 22 9 47 9 55 0 8 3 26 6 40 2 14 7 48
11 75 3 28 8 64 11 80 2 17 6 53 8 80 3 28 8 93 13 145 16 187 9 675 -12 865
-3 22 -7 63 -10 90 -2 28 -7 66 -10 85 -4 19 -8 53 -10 75 -3 22 -9 63 -15 90
-6 28 -13 61 -15 75 -10 51 -14 72 -20 90 -3 10 -8 27 -10 39 -26 134 -195
590 -228 612 -5 3 -7 8 -6 10 5 7 -25 69 -33 69 -5 0 -8 6 -8 14 0 13 -33 73
-121 221 -13 22 -27 42 -31 43 -4 2 -8 8 -8 12 0 21 -221 322 -300 409 -14 15
-44 49 -68 75 l-42 47 27 47 c14 26 31 53 37 61 11 15 31 48 43 71 4 8 26 45
50 82 24 36 43 71 43 77 0 6 4 11 8 11 5 0 16 15 26 33 9 17 27 48 39 68 52
85 103 172 116 197 8 15 17 29 20 32 19 16 193 364 235 470 20 52 42 104 47
115 6 12 11 27 13 35 2 8 6 23 10 32 4 9 9 22 10 30 2 7 6 20 9 28 11 26 56
203 61 240 3 19 8 46 11 60 3 14 8 41 10 60 3 19 7 49 9 65 33 226 22 673 -21
915 -3 19 -7 42 -8 50 -12 75 -20 109 -45 205 -16 61 -38 139 -50 175 -27 85
-118 298 -142 332 -10 14 -18 29 -18 33 0 11 -84 139 -134 204 -73 97 -182
212 -266 281 -76 62 -94 76 -140 107 -42 29 -62 40 -165 98 -140 79 -473 190
-592 198 -7 0 -13 4 -13 9 0 5 -4 7 -9 3 -5 -3 -29 -1 -53 4 -24 5 -72 12
-108 16 -36 4 -74 9 -85 11 -11 2 -51 6 -90 9 -38 3 -101 7 -140 10 -159 12
-502 30 -762 39 -62 3 -117 7 -123 11 -5 3 -10 1 -10 -5 0 -6 -5 -8 -10 -5
-18 11 -305 15 -1225 20 -478 2 -917 7 -975 10 -125 6 -1116 16 -1121 10z
m768 -276 c12 -4 24 -5 27 0 3 4 22 6 43 4 110 -10 397 -14 1035 -18 886 -4
1476 -16 1499 -31 5 -3 9 0 9 6 0 6 5 8 13 3 6 -4 57 -8 112 -9 552 -12 759
-22 970 -50 92 -13 137 -20 225 -39 48 -10 70 -15 89 -19 11 -3 28 -9 39 -15
11 -6 21 -8 24 -6 2 3 35 -7 74 -21 38 -15 79 -29 92 -31 12 -3 22 -9 22 -14
0 -5 3 -8 8 -7 11 2 41 -10 97 -39 28 -14 64 -33 80 -41 150 -78 352 -260 456
-412 24 -36 46 -67 49 -70 29 -29 172 -333 173 -367 0 -7 3 -13 7 -13 4 0 7
-6 8 -12 1 -7 17 -68 36 -134 19 -67 37 -135 40 -150 2 -16 7 -40 10 -54 4
-14 9 -45 12 -70 2 -25 7 -58 9 -75 7 -49 17 -137 21 -185 5 -69 5 -410 -1
-459 -2 -24 -7 -64 -10 -90 -3 -25 -7 -57 -10 -71 -3 -14 -7 -41 -10 -60 -2
-19 -7 -45 -10 -57 -3 -13 -7 -31 -9 -40 -17 -70 -44 -169 -60 -218 -6 -20
-38 -103 -56 -150 -47 -118 -211 -442 -230 -455 -3 -3 -13 -20 -21 -37 -8 -18
-17 -33 -21 -33 -5 0 -8 -4 -8 -10 0 -10 -229 -383 -250 -407 -6 -7 -11 -16
-12 -20 -3 -16 -60 -103 -67 -103 -4 0 -16 9 -27 21 -27 30 -230 183 -359 270
-167 114 -322 207 -497 300 -49 26 -75 45 -71 53 3 6 19 30 35 53 15 23 28 46
28 52 0 6 5 11 10 11 6 0 10 7 10 15 0 8 5 15 10 15 6 0 10 4 10 10 0 5 17 36
37 67 48 74 68 107 95 161 12 23 26 42 30 42 4 0 8 4 8 9 0 6 22 51 49 100 27
50 46 91 43 91 -4 0 -2 4 3 8 11 7 81 157 100 212 1 3 4 12 8 20 90 230 125
500 87 659 -6 27 -12 56 -14 65 -1 8 -5 19 -9 22 -4 4 -7 14 -7 22 0 25 -67
156 -108 210 -43 58 -109 129 -165 179 -86 76 -309 205 -432 251 -16 6 -43 17
-60 23 -16 7 -34 13 -40 15 -5 1 -57 16 -113 33 -57 16 -116 32 -130 35 -15 2
-47 9 -72 14 -47 11 -97 20 -165 29 -22 2 -51 7 -65 9 -14 2 -52 6 -85 9 -33
3 -76 8 -95 10 -181 23 -676 23 -1140 0 -36 -2 -116 -6 -179 -9 -63 -3 -116
-8 -119 -10 -2 -3 -13 -1 -23 5 -11 5 -19 6 -19 2 0 -4 -19 -9 -43 -9 -74 -3
-456 -15 -617 -19 -168 -5 -192 -7 -515 -31 -75 -5 -155 -13 -205 -20 -25 -3
-70 -7 -100 -10 -30 -2 -73 -7 -95 -10 -22 -3 -67 -7 -100 -9 -33 -2 -85 -7
-115 -10 -30 -4 -77 -8 -105 -10 -83 -5 -218 -16 -245 -20 -14 -2 -50 -7 -80
-10 -326 -37 -570 -134 -744 -294 -152 -141 -218 -233 -297 -416 -31 -72 -56
-234 -53 -342 2 -87 5 -123 18 -213 9 -60 66 -248 96 -315 9 -22 30 -69 46
-105 15 -36 36 -77 47 -92 10 -16 15 -28 12 -28 -3 0 3 -13 14 -29 12 -16 21
-32 21 -36 0 -3 15 -29 33 -58 18 -29 39 -64 46 -79 8 -16 18 -28 23 -28 4 0
8 -5 8 -10 0 -9 74 -124 90 -140 3 -3 10 -12 15 -21 6 -9 28 -41 49 -73 21
-31 37 -58 35 -60 -2 -1 -24 -14 -49 -27 -25 -13 -47 -27 -50 -30 -3 -3 -20
-14 -39 -24 -49 -25 -252 -168 -292 -205 -8 -8 -42 -37 -74 -65 -33 -27 -110
-101 -173 -163 l-114 -113 -17 23 c-10 13 -20 28 -22 33 -5 12 -82 128 -89
135 -4 3 -25 34 -47 70 -23 36 -46 70 -50 75 -11 13 -165 244 -178 267 -5 9
-35 59 -66 110 -72 118 -158 282 -199 378 -18 41 -38 89 -45 105 -8 17 -17 44
-21 60 -4 17 -10 35 -14 40 -4 6 -10 21 -13 35 -3 14 -11 43 -17 65 -25 92
-30 121 -51 265 -11 78 -8 379 4 435 3 11 8 47 12 80 4 32 9 68 11 80 2 11 7
34 10 50 35 199 131 476 225 653 54 101 91 166 98 172 3 3 19 25 35 50 53 81
138 183 230 275 91 91 173 165 183 165 2 0 24 16 47 35 24 19 48 35 55 35 6 0
11 4 11 9 0 5 15 16 33 25 44 23 71 39 78 49 3 5 10 9 15 9 5 0 27 10 49 21
105 55 397 168 468 181 12 2 49 11 82 19 49 13 166 39 235 52 13 2 100 15 140
20 8 1 33 5 55 9 22 3 67 8 100 11 33 3 78 7 100 9 22 3 89 7 150 11 60 3 111
7 112 9 8 7 750 3 770 -5z m2408 -1293 c22 -3 83 -8 135 -11 52 -3 111 -8 130
-10 70 -7 136 -15 170 -20 19 -2 55 -7 80 -11 25 -3 50 -7 55 -8 6 -2 28 -6
50 -11 58 -11 136 -31 168 -44 15 -6 27 -8 27 -5 0 4 7 0 17 -7 9 -8 18 -13
19 -12 11 7 151 -59 214 -102 29 -19 54 -35 56 -35 10 0 110 -100 139 -140 68
-92 119 -207 141 -320 9 -43 10 -304 2 -345 -29 -153 -106 -330 -214 -497 -24
-38 -44 -71 -44 -74 0 -3 -11 -17 -25 -32 -14 -15 -25 -30 -25 -34 0 -5 -33
-54 -73 -110 -40 -57 -86 -124 -102 -150 -17 -27 -35 -48 -42 -48 -12 0 -23 5
-116 45 -43 19 -178 69 -247 92 -25 8 -52 17 -60 20 -8 4 -18 7 -22 8 -5 2
-10 4 -13 5 -3 1 -8 3 -12 4 -5 1 -33 9 -63 19 -83 25 -231 65 -270 72 -43 8
-51 10 -70 18 -8 3 -42 11 -75 17 -146 26 -274 49 -320 56 -27 4 -57 8 -65 10
-8 1 -42 5 -75 8 -33 3 -71 8 -85 10 -14 3 -56 8 -95 11 -38 3 -90 7 -115 10
-306 29 -1000 19 -1320 -20 -44 -5 -165 -17 -205 -21 -16 -1 -30 -3 -30 -4 0
-1 -11 -3 -25 -5 -101 -11 -128 -15 -150 -19 -14 -3 -38 -7 -55 -9 -16 -3 -46
-8 -65 -11 -19 -3 -46 -8 -60 -10 -14 -2 -45 -9 -70 -15 -25 -5 -58 -12 -75
-15 -16 -3 -41 -8 -55 -12 -14 -3 -43 -9 -65 -14 -22 -5 -76 -18 -120 -30 -44
-12 -93 -26 -110 -30 -79 -20 -365 -119 -379 -132 -6 -4 -16 -8 -24 -8 -7 0
-39 -12 -70 -26 -31 -14 -73 -33 -92 -42 -19 -8 -38 -17 -42 -19 -9 -5 -213
271 -291 394 -111 177 -189 349 -222 488 -4 17 -9 39 -11 50 -14 58 -13 219 1
291 38 198 158 396 311 510 21 16 42 33 46 39 4 5 8 7 8 3 0 -4 16 4 36 17 32
22 177 83 214 90 8 2 35 8 60 15 25 7 54 13 65 15 39 5 120 18 140 22 11 2 47
6 80 8 33 2 60 4 60 5 0 1 20 3 45 5 60 4 195 16 245 21 22 3 60 7 85 9 25 2
69 6 98 9 131 14 161 17 222 21 36 2 65 5 65 5 0 2 186 16 355 26 184 10 310
14 685 20 214 3 391 6 392 8 5 5 1107 -2 1148 -8z m-915 -1890 c41 -4 98 -9
125 -11 28 -3 75 -8 105 -10 30 -3 73 -8 95 -11 22 -2 58 -7 80 -10 22 -2 51
-7 65 -9 14 -3 45 -8 70 -11 88 -12 95 -13 120 -19 14 -4 32 -7 40 -7 8 0 31
-4 50 -8 19 -5 49 -11 65 -13 17 -3 71 -15 120 -27 50 -12 98 -24 108 -26 30
-7 51 -13 85 -23 18 -5 36 -10 40 -10 11 -1 114 -32 155 -47 20 -8 41 -13 45
-12 4 1 16 -3 27 -9 11 -6 22 -11 25 -11 9 -1 94 -31 185 -65 17 -7 33 -11 38
-9 4 1 7 -2 7 -8 0 -5 6 -10 14 -10 13 0 38 -10 171 -71 28 -12 52 -23 55 -24
40 -11 471 -253 490 -275 3 -3 35 -25 73 -50 37 -24 67 -47 67 -52 0 -4 5 -8
11 -8 9 0 93 -62 174 -128 170 -138 368 -336 488 -487 26 -33 54 -68 62 -77 8
-10 12 -18 9 -18 -2 0 7 -12 21 -27 14 -15 25 -33 25 -40 0 -6 3 -13 8 -15 26
-12 251 -417 244 -440 -1 -5 3 -8 8 -8 5 0 9 -4 7 -8 -1 -4 8 -30 19 -58 12
-27 30 -69 39 -94 10 -25 21 -54 26 -65 4 -11 13 -38 20 -60 6 -22 15 -49 20
-60 4 -11 13 -36 19 -56 10 -34 15 -53 26 -108 3 -13 9 -32 15 -43 5 -10 8
-18 5 -18 -3 0 0 -15 5 -32 17 -55 57 -272 52 -280 -2 -5 -1 -8 4 -8 4 0 9
-12 9 -27 1 -16 5 -50 9 -78 29 -202 39 -385 39 -665 -1 -212 -5 -317 -21
-450 -3 -25 -6 -58 -8 -75 -1 -16 -4 -30 -4 -30 -1 0 -4 -16 -5 -35 -6 -58
-18 -134 -23 -143 -2 -4 -6 -26 -9 -50 -2 -23 -22 -114 -44 -202 -22 -88 -42
-168 -45 -178 -2 -10 -16 -57 -32 -105 -15 -48 -28 -89 -28 -92 -7 -25 -149
-385 -154 -390 -3 -3 -7 -10 -8 -16 -4 -21 -127 -269 -145 -293 -10 -13 -18
-32 -18 -42 0 -9 -3 -19 -8 -21 -9 -4 -92 -147 -92 -159 0 -5 -4 -9 -10 -9 -5
0 -10 -5 -10 -11 0 -6 -13 -31 -30 -56 -16 -24 -30 -48 -30 -54 0 -5 -3 -9 -7
-9 -5 0 -19 -18 -33 -40 -13 -22 -28 -40 -32 -40 -4 0 -8 -5 -8 -11 0 -11
-138 -152 -195 -199 -71 -59 -195 -130 -319 -185 -77 -33 -278 -91 -351 -101
-16 -2 -41 -6 -55 -9 -54 -11 -154 -22 -265 -31 -44 -3 -321 -7 -615 -9 -294
-1 -728 -6 -965 -11 -762 -14 -2750 -8 -3045 11 -41 2 -102 7 -135 11 -33 4
-78 8 -100 10 -22 1 -40 3 -40 4 0 2 -22 6 -70 14 -76 13 -271 67 -300 85 -5
3 -12 6 -15 7 -3 0 -18 7 -35 14 -16 7 -32 14 -35 14 -21 4 -172 96 -241 147
-111 81 -269 241 -362 364 -4 5 -21 26 -37 45 -16 19 -30 39 -30 43 0 4 -9 17
-19 29 -11 11 -26 32 -33 47 -7 14 -30 52 -51 83 -20 31 -37 61 -37 67 0 5 -4
11 -9 13 -7 2 -174 332 -177 348 0 3 -6 19 -13 35 -7 17 -24 59 -38 95 -13 36
-30 79 -37 95 -14 30 -144 406 -144 415 0 3 -11 41 -25 86 -25 79 -51 175 -61
224 -3 14 -7 36 -10 50 -3 13 -8 42 -11 65 -4 22 -8 54 -11 70 -3 17 -7 58 -9
92 -2 34 -6 66 -9 71 -6 10 0 481 7 527 2 17 8 62 12 100 4 39 9 79 11 90 5
22 14 87 19 125 2 14 4 25 5 25 2 0 6 22 13 75 6 40 46 208 77 325 12 44 23
88 25 97 2 9 9 26 15 37 6 12 8 21 6 21 -3 0 11 46 30 103 20 56 37 107 39
112 1 6 6 19 10 30 37 91 68 172 69 183 1 7 8 18 14 24 7 7 12 19 12 28 0 9 3
20 7 24 5 4 8 11 8 14 0 19 205 432 229 462 6 8 22 35 36 60 56 105 233 360
330 474 75 87 189 205 303 311 43 40 213 171 272 210 33 22 62 42 65 45 10 11
194 119 237 139 11 5 24 15 28 20 3 6 14 11 24 11 10 0 31 10 47 23 16 12 30
20 32 19 5 -6 80 26 87 38 3 5 12 10 20 10 7 0 34 9 59 20 26 11 47 19 49 19
1 0 29 12 62 26 33 15 60 26 60 25 0 -1 14 4 30 10 17 7 37 13 45 15 8 2 34
10 58 19 23 8 42 13 42 10 0 -2 12 2 28 10 15 8 41 16 57 19 17 3 43 10 58 16
15 6 41 13 58 16 16 3 55 12 87 21 31 8 68 17 82 20 14 3 79 16 145 29 66 13
138 26 160 29 22 3 52 8 68 11 15 3 44 7 65 9 20 3 53 7 72 10 44 7 205 24
285 31 33 2 85 7 115 10 30 3 108 7 174 10 65 2 120 6 122 8 6 6 675 0 754 -7z"/>
<path d="M3270 6320 c-14 -4 -49 -21 -78 -39 -29 -17 -55 -31 -57 -31 -3 0
-56 -34 -125 -80 -63 -42 -177 -124 -185 -134 -5 -7 -17 -17 -26 -22 -19 -10
-99 -77 -172 -144 -77 -69 -198 -196 -277 -290 -110 -131 -110 -131 -110 -140
0 -5 -3 -10 -7 -12 -5 -1 -19 -19 -32 -38 -166 -234 -301 -491 -394 -745 -14
-38 -29 -79 -33 -90 -4 -11 -8 -23 -9 -27 -2 -5 -3 -9 -5 -10 -1 -2 -3 -10 -5
-18 -2 -8 -13 -50 -25 -93 -17 -63 -19 -84 -10 -111 13 -39 62 -86 90 -86 11
0 20 -4 20 -10 0 -6 10 -6 28 1 15 6 28 10 30 10 26 -8 92 47 92 76 0 8 23 82
51 166 51 152 148 380 201 470 15 26 28 50 28 53 0 3 14 25 30 49 17 24 30 48
30 54 0 6 5 11 10 11 6 0 10 7 10 15 0 8 5 15 10 15 6 0 10 4 10 10 0 14 143
211 189 262 9 9 50 54 91 100 183 203 416 390 682 547 110 65 138 110 112 183
-26 76 -98 119 -164 98z"/>
<path d="M5238 5724 c-2 -1 -26 -5 -53 -8 -47 -6 -64 -9 -125 -22 -14 -3 -36
-7 -50 -10 -124 -25 -441 -175 -458 -216 -2 -4 -8 -8 -14 -8 -26 0 -210 -179
-282 -275 -137 -184 -240 -431 -271 -650 -24 -179 -24 -353 0 -487 16 -90 23
-116 46 -187 25 -76 118 -261 130 -261 5 0 9 -5 9 -12 0 -20 161 -198 179
-198 4 0 16 -9 27 -21 34 -38 221 -141 267 -148 4 0 20 -7 35 -15 38 -19 169
-52 252 -62 25 -3 56 -8 70 -10 19 -3 221 -14 275 -15 28 -1 194 12 220 17 17
3 47 7 67 9 20 2 45 6 55 9 10 3 32 8 48 11 17 3 64 14 105 25 97 27 88 24
148 47 9 3 19 7 22 8 88 30 304 152 323 182 4 7 12 13 18 13 16 0 143 131 194
200 130 178 194 397 190 650 -4 171 -14 245 -60 420 -20 72 -103 268 -139 325
-60 94 -137 205 -167 239 -89 102 -238 232 -319 277 -14 8 -27 16 -30 19 -6 7
-177 90 -184 90 -3 0 -17 5 -33 12 -15 6 -30 12 -33 13 -29 7 -111 26 -135 31
-31 6 -322 14 -327 8z m278 -278 c84 -13 298 -102 316 -130 4 -6 8 -7 8 -1 0
7 3 7 8 0 4 -6 33 -30 66 -54 180 -134 326 -338 406 -571 17 -52 34 -106 36
-120 3 -14 7 -33 10 -43 3 -10 7 -32 10 -50 2 -18 6 -48 9 -67 6 -40 6 -201 1
-245 -6 -49 -19 -108 -28 -135 -3 -8 -13 -35 -22 -60 -60 -170 -219 -330 -426
-427 -64 -30 -204 -78 -258 -88 -15 -3 -37 -7 -49 -10 -13 -3 -31 -7 -40 -9
-10 -2 -47 -7 -83 -11 -36 -4 -76 -9 -90 -11 -82 -12 -360 -4 -435 13 -11 2
-29 6 -40 8 -95 17 -235 73 -319 128 -42 26 -166 141 -166 152 0 3 -8 15 -18
26 -50 53 -126 232 -138 323 -3 22 -9 47 -13 55 -9 18 -7 244 2 311 7 46 14
85 17 85 1 0 3 11 5 25 6 31 10 51 18 70 3 8 13 40 23 70 9 30 22 58 28 62 6
4 8 8 3 8 -21 0 122 243 190 322 100 115 227 217 343 275 41 21 77 38 80 39 3
0 12 3 20 7 64 26 134 44 210 53 25 4 46 8 48 9 5 4 234 -3 268 -9z"/>
<path d="M1635 3842 c-52 -32 -70 -68 -67 -135 7 -159 234 -163 259 -5 6 40
-22 112 -52 132 -39 25 -105 29 -140 8z"/>
</g>
</svg>
